<?xml version="1.0" encoding="UTF-8"?>
<svg xmlns="http://www.w3.org/2000/svg" version="1.1" viewBox="0 0 512 512">
  <defs>
    <style>
      .cls-1 {
        fill: #fff;
        stroke: #000;
        stroke-miterlimit: 10;
      }
    </style>
  </defs>
  <!-- Generator: Adobe Illustrator 28.7.1, SVG Export Plug-In . SVG Version: 1.2.0 Build 142)  -->
  <g>
    <g id="Icons">
      <polygon class="cls-1" points="46 163 76.3 84.9 134 42 195 17.1 256 9 307.2 17.1 357 30 389 53 426.7 96 456 141 469 218 460.8 266 460.8 286 469 338 453 380 418 409.6 377 417 367 417 365 464 365 494.9 332 512 221.9 504 162.1 503 141.5 501.5 143 462 141 421 119 409.6 78 398 56 366.9 41 329 41 295 59 273 46 238.9 41 195 46 163"/>
      <path d="M66.3,397.4c19.1,17.9,44.1,28.3,70.3,29.2v59.8c0,14.1,11.5,25.6,25.6,25.6h187.7c14.1,0,25.6-11.5,25.6-25.6v-59.8c55.6-1.1,100.6-45.5,102.4-101,.3-18-4.2-35.7-13.1-51.4,8.7-22.1,13.1-45.7,13.1-69.4C477.9,91.9,378.3,0,256,0S34.1,91.9,34.1,204.8c0,23.8,4.4,47.3,13.1,69.4-23,40.5-15.2,91.5,19,123.2h0ZM64.6,271.6c-8.9-21.2-13.5-43.9-13.4-66.8,0-103.5,91.9-187.7,204.8-187.7s204.8,84.2,204.8,187.7c0,23-4.5,45.7-13.4,66.8-1.1,2.6-.8,5.5.6,7.9,8.6,13.7,13.1,29.7,12.8,45.8-1.7,47.5-41.2,85-88.7,84.2-7.5,0-13.7,6.1-13.7,13.7v63.1c0,4.7-3.8,8.5-8.5,8.5h-25.6v-25.6c0-4.7-3.8-8.5-8.5-8.5s-8.5,3.8-8.5,8.5v25.6h-42.7v-25.6c0-4.7-3.8-8.5-8.5-8.5s-8.5,3.8-8.5,8.5v25.6h-42.7v-25.6c0-4.7-3.8-8.5-8.5-8.5s-8.5,3.8-8.5,8.5v25.6h-25.6c-4.7,0-8.5-3.8-8.5-8.5v-63.1c0-7.5-6.1-13.7-13.7-13.7-23,0-45.2-8.8-62-24.6-29.4-27.2-35.3-71.6-14-105.5,1.5-2.4,1.7-5.3.6-7.9h0Z"/>
      <path d="M162.1,366.9c42.4,0,76.8-34.4,76.8-76.8,0-51.2-50-51.2-76.8-51.2s-76.8,0-76.8,51.2c0,42.4,34.4,76.8,76.8,76.8ZM162.1,256c44.7,0,59.7,8.6,59.7,34.1s-26.7,59.7-59.7,59.7-59.7-26.7-59.7-59.7,15.1-34.1,59.7-34.1Z"/>
      <path d="M349.9,366.9c42.4,0,76.8-34.4,76.8-76.8,0-51.2-50-51.2-76.8-51.2s-76.8,0-76.8,51.2c0,42.4,34.4,76.8,76.8,76.8ZM349.9,256c44.7,0,59.7,8.6,59.7,34.1s-26.7,59.7-59.7,59.7-59.7-26.7-59.7-59.7,15.1-34.1,59.7-34.1Z"/>
      <path d="M209.2,393.9c-5.5,6.8-5.9,16.4-1,23.6,4.9,7.5,14.1,10.9,22.6,8.3l25.1-7.1,25.1,7.1c1.9.5,3.8.8,5.8.8,6.8,0,13.2-3.4,16.9-9.1,4.9-7.2,4.5-16.8-1-23.6l-27.5-34.7c-8.5-10.7-24.1-12.4-34.8-3.9-1.4,1.2-2.8,2.5-3.9,3.9l-27.5,34.7ZM250,369.8c2.9-3.3,7.9-3.6,11.2-.8.3.2.5.5.8.8l27.4,34.7c.9,1,1,2.5.2,3.6-.8,1.3-2.4,1.8-3.8,1.4l-27.4-7.7c-1.5-.4-3.1-.4-4.6,0l-27.4,7.7c-1.4.5-3,0-3.8-1.4-.8-1.1-.7-2.6.2-3.6l27.4-34.7Z"/>
    </g>
  </g>
</svg>